<?xml version="1.0" encoding="UTF-8"?>
<svg width="800px" height="800px" viewBox="0 0 800 800" version="1.1" xmlns="http://www.w3.org/2000/svg" xmlns:xlink="http://www.w3.org/1999/xlink">
    <title>Circuit Pattern</title>
    <defs>
        <linearGradient x1="0%" y1="0%" x2="100%" y2="100%" id="circuitGradient">
            <stop stop-color="#0070f3" offset="0%"></stop>
            <stop stop-color="#00ffff" offset="50%"></stop>
            <stop stop-color="#ff4081" offset="100%"></stop>
        </linearGradient>
    </defs>
    <g stroke="url(#circuitGradient)" stroke-width="2" fill="none" fill-rule="evenodd" stroke-linecap="round" stroke-linejoin="round">
        <!-- Horizontal Lines -->
        <path d="M20,100 L100,100 L120,120 L200,120"></path>
        <path d="M200,120 L280,120 L300,100 L380,100"></path>
        <path d="M380,100 L460,100 L480,120 L560,120"></path>
        <path d="M560,120 L640,120 L660,100 L780,100"></path>
        
        <path d="M20,300 L100,300 L120,320 L200,320"></path>
        <path d="M200,320 L280,320 L300,300 L380,300"></path>
        <path d="M380,300 L460,300 L480,320 L560,320"></path>
        <path d="M560,320 L640,320 L660,300 L780,300"></path>
        
        <path d="M20,500 L100,500 L120,520 L200,520"></path>
        <path d="M200,520 L280,520 L300,500 L380,500"></path>
        <path d="M380,500 L460,500 L480,520 L560,520"></path>
        <path d="M560,520 L640,520 L660,500 L780,500"></path>
        
        <path d="M20,700 L100,700 L120,720 L200,720"></path>
        <path d="M200,720 L280,720 L300,700 L380,700"></path>
        <path d="M380,700 L460,700 L480,720 L560,720"></path>
        <path d="M560,720 L640,720 L660,700 L780,700"></path>
        
        <!-- Vertical Lines -->
        <path d="M100,20 L100,100"></path>
        <path d="M100,300 L100,380 L120,400 L120,480 L100,500"></path>
        <path d="M100,700 L100,780"></path>
        
        <path d="M300,20 L300,100"></path>
        <path d="M300,300 L300,380 L280,400 L280,480 L300,500"></path>
        <path d="M300,700 L300,780"></path>
        
        <path d="M500,20 L500,100"></path>
        <path d="M500,300 L500,380 L520,400 L520,480 L500,500"></path>
        <path d="M500,700 L500,780"></path>
        
        <path d="M700,20 L700,100"></path>
        <path d="M700,300 L700,380 L680,400 L680,480 L700,500"></path>
        <path d="M700,700 L700,780"></path>
        
        <!-- Diagonal Lines -->
        <path d="M20,20 L80,80 L100,80 L140,40 L300,40"></path>
        <path d="M500,40 L660,40 L700,80 L720,80 L780,20"></path>
        
        <path d="M20,780 L80,720 L100,720 L140,760 L300,760"></path>
        <path d="M500,760 L660,760 L700,720 L720,720 L780,780"></path>
        
        <!-- Nodes -->
        <circle cx="100" cy="100" r="8" fill="#00ffff" stroke="none"></circle>
        <circle cx="300" cy="100" r="8" fill="#00ffff" stroke="none"></circle>
        <circle cx="500" cy="100" r="8" fill="#00ffff" stroke="none"></circle>
        <circle cx="700" cy="100" r="8" fill="#00ffff" stroke="none"></circle>
        
        <circle cx="100" cy="300" r="8" fill="#00ffff" stroke="none"></circle>
        <circle cx="300" cy="300" r="8" fill="#00ffff" stroke="none"></circle>
        <circle cx="500" cy="300" r="8" fill="#00ffff" stroke="none"></circle>
        <circle cx="700" cy="300" r="8" fill="#00ffff" stroke="none"></circle>
        
        <circle cx="100" cy="500" r="8" fill="#00ffff" stroke="none"></circle>
        <circle cx="300" cy="500" r="8" fill="#00ffff" stroke="none"></circle>
        <circle cx="500" cy="500" r="8" fill="#00ffff" stroke="none"></circle>
        <circle cx="700" cy="500" r="8" fill="#00ffff" stroke="none"></circle>
        
        <circle cx="100" cy="700" r="8" fill="#00ffff" stroke="none"></circle>
        <circle cx="300" cy="700" r="8" fill="#00ffff" stroke="none"></circle>
        <circle cx="500" cy="700" r="8" fill="#00ffff" stroke="none"></circle>
        <circle cx="700" cy="700" r="8" fill="#00ffff" stroke="none"></circle>
        
        <!-- Components -->
        <rect x="180" y="110" width="40" height="20" rx="2" stroke-width="2" stroke="#00ffff" fill="#000"></rect>
        <rect x="580" y="110" width="40" height="20" rx="2" stroke-width="2" stroke="#00ffff" fill="#000"></rect>
        
        <rect x="180" y="310" width="40" height="20" rx="2" stroke-width="2" stroke="#00ffff" fill="#000"></rect>
        <rect x="580" y="310" width="40" height="20" rx="2" stroke-width="2" stroke="#00ffff" fill="#000"></rect>
        
        <rect x="180" y="510" width="40" height="20" rx="2" stroke-width="2" stroke="#00ffff" fill="#000"></rect>
        <rect x="580" y="510" width="40" height="20" rx="2" stroke-width="2" stroke="#00ffff" fill="#000"></rect>
        
        <rect x="180" y="710" width="40" height="20" rx="2" stroke-width="2" stroke="#00ffff" fill="#000"></rect>
        <rect x="580" y="710" width="40" height="20" rx="2" stroke-width="2" stroke="#00ffff" fill="#000"></rect>
        
        <!-- IC Chips -->
        <rect x="350" y="250" width="100" height="100" rx="4" stroke-width="2" stroke="#00ffff" fill="#121212"></rect>
        <line x1="350" y1="270" x2="330" y2="270" stroke="#00ffff" stroke-width="2"></line>
        <line x1="350" y1="290" x2="330" y2="290" stroke="#00ffff" stroke-width="2"></line>
        <line x1="350" y1="310" x2="330" y2="310" stroke="#00ffff" stroke-width="2"></line>
        <line x1="350" y1="330" x2="330" y2="330" stroke="#00ffff" stroke-width="2"></line>
        
        <line x1="450" y1="270" x2="470" y2="270" stroke="#00ffff" stroke-width="2"></line>
        <line x1="450" y1="290" x2="470" y2="290" stroke="#00ffff" stroke-width="2"></line>
        <line x1="450" y1="310" x2="470" y2="310" stroke="#00ffff" stroke-width="2"></line>
        <line x1="450" y1="330" x2="470" y2="330" stroke="#00ffff" stroke-width="2"></line>
        
        <circle cx="370" cy="270" r="4" fill="#ff4081" stroke="none"></circle>
        <circle cx="370" cy="330" r="4" fill="#ff4081" stroke="none"></circle>
        <circle cx="430" cy="270" r="4" fill="#ff4081" stroke="none"></circle>
        <circle cx="430" cy="330" r="4" fill="#ff4081" stroke="none"></circle>
        
        <rect x="350" y="450" width="100" height="100" rx="4" stroke-width="2" stroke="#00ffff" fill="#121212"></rect>
        <line x1="350" y1="470" x2="330" y2="470" stroke="#00ffff" stroke-width="2"></line>
        <line x1="350" y1="490" x2="330" y2="490" stroke="#00ffff" stroke-width="2"></line>
        <line x1="350" y1="510" x2="330" y2="510" stroke="#00ffff" stroke-width="2"></line>
        <line x1="350" y1="530" x2="330" y2="530" stroke="#00ffff" stroke-width="2"></line>
        
        <line x1="450" y1="470" x2="470" y2="470" stroke="#00ffff" stroke-width="2"></line>
        <line x1="450" y1="490" x2="470" y2="490" stroke="#00ffff" stroke-width="2"></line>
        <line x1="450" y1="510" x2="470" y2="510" stroke="#00ffff" stroke-width="2"></line>
        <line x1="450" y1="530" x2="470" y2="530" stroke="#00ffff" stroke-width="2"></line>
        
        <circle cx="370" cy="470" r="4" fill="#ff4081" stroke="none"></circle>
        <circle cx="370" cy="530" r="4" fill="#ff4081" stroke="none"></circle>
        <circle cx="430" cy="470" r="4" fill="#ff4081" stroke="none"></circle>
        <circle cx="430" cy="530" r="4" fill="#ff4081" stroke="none"></circle>
    </g>
</svg> 